<svg width="379.50751953125px" height="336.8375px" xmlns="http://www.w3.org/2000/svg" viewBox="60.246240234374994 -93.41874999999999 379.50751953125 336.8375" style="background: rgba(0, 0, 0, 0);" preserveAspectRatio="xMidYMid"><defs><filter id="editing-extrude-glow"><feFlood flood-color="#333333" result="flood-1"></feFlood><feMorphology operator="erode" radius="1" in="SourceAlpha" result="erode"></feMorphology><feComposite operator="in" in="flood-1" in2="erode" result="comp1"></feComposite><feConvolveMatrix order="3,3" divisor="1" in="comp1" result="convolve" kernelMatrix="0 0 0 1 1 1 0 0 0"></feConvolveMatrix><feOffset dx="-3" dy="0" in="convolve" result="extrude"></feOffset><feComposite operator="in" in="flood-1" in2="extrude" result="comp-extrude"></feComposite><feFlood flood-color="#000000" result="flood-2"></feFlood><feComposite operator="in" in="flood-2" in2="SourceAlpha" result="comp2"></feComposite><feMorphology operator="dilate" radius="1" in="comp2" result="dilate"></feMorphology><feOffset dx="-4.5" dy="0" in="dilate" result="offset"></feOffset><feGaussianBlur in="offset" stdDeviation="5.8" result="blur"></feGaussianBlur><feComponentTransfer in="blur" result="shadow"><feFuncA type="linear" slope="0.8" intercept="-0.2"></feFuncA></feComponentTransfer><feMerge><feMergeNode in="shadow"></feMergeNode><feMergeNode in="comp-extrude"></feMergeNode><feMergeNode in="SourceGraphic"></feMergeNode></feMerge></filter></defs><g filter="url(#editing-extrude-glow)"><g transform="translate(124.06250286102295, 150)"><path d="M91.20 4L91.20 4L91.20 4Q65.60 4 63.20-32.40L63.20-32.40L28.80-32.40L28.80-32.40Q24.80-23.20 22-15.20L22-15.20L16.80 0L-11.20 0L51.80-132L94.80-132L103.20-34.80L103.20-34.80Q105.20-13.80 113.20-7.60L113.20-7.60L113.20-7.60Q107.40 4 91.20 4ZM46-72.40L35-47L62.60-47L60.20-98.40L60.20-103.80L46-72.40ZM172.60-11L172.60-11L172.60-11Q166.40 4 146.60 4L146.60 4L146.60 4Q136.60 4 130.20-3L130.20-3L130.20-3Q125-8.80 125-15.40L125-15.40L125-15.40Q125-30.40 132-63.20L132-63.20L146.60-140L187.20-144L167.80-42.80L167.80-42.80Q164.40-28 164.40-22.80L164.40-22.80L164.40-22.80Q164.40-11.40 172.60-11ZM237.60-11L237.60-11L237.60-11Q231.40 4 211.60 4L211.60 4L211.60 4Q201.40 4 195-3L195-3L195-3Q189.60-9.20 189.60-15.40L189.60-15.40L189.60-15.40Q189.60-31.60 197-63.20L197-63.20L204.40-102L245-106L232.80-42.80L232.80-42.80Q229.40-28 229.40-22.80L229.40-22.80L229.40-22.80Q229.40-11.40 237.60-11ZM208-129.80L208-129.80L208-129.80Q208-137.60 214.50-141.80L214.50-141.80L214.50-141.80Q221-146 230.40-146L230.40-146L230.40-146Q239.80-146 245.50-141.80L245.50-141.80L245.50-141.80Q251.20-137.60 251.20-129.80L251.20-129.80L251.20-129.80Q251.20-122 244.90-118L244.90-118L244.90-118Q238.60-114 229.20-114L229.20-114L229.20-114Q219.80-114 213.90-118L213.90-118L213.90-118Q208-122 208-129.80Z" fill="#eb6c6c"></path></g></g><style>text {
  font-size: 64px;
  font-family: Arial Black;
  dominant-baseline: central;
  text-anchor: middle;
}</style></svg>